<?xml version="1.0" encoding="UTF-8" standalone="no"?>
<svg width="22px" height="20px" viewBox="0 0 22 20" version="1.1" xmlns="http://www.w3.org/2000/svg" xmlns:xlink="http://www.w3.org/1999/xlink" xmlns:sketch="http://www.bohemiancoding.com/sketch/ns">
    <!-- Generator: Sketch Beta 3.4 (15138) - http://www.bohemiancoding.com/sketch -->
    <title>Shape</title>
    <desc>Created with Sketch Beta.</desc>
    <defs></defs>
    <g id="Page-1" stroke="none" stroke-width="1" fill="none" fill-rule="evenodd" sketch:type="MSPage">
        <g id="Home-Copy-6" sketch:type="MSArtboardGroup" transform="translate(-242.000000, -710.000000)" fill="#DD3838">
            <g id="We-design-and-develo-+-Group-+-We-know-how-to-make-" sketch:type="MSLayerGroup" transform="translate(242.000000, 334.000000)">
                <g id="Group-+-We-know-how-to-make-" transform="translate(0.000000, 204.000000)" sketch:type="MSShapeGroup">
                    <g id="Group" transform="translate(0.000000, 170.000000)">
                        <path d="M19.615,2 C19.0538462,2 18.5619231,2.25192308 18.2111538,2.63615385 L7.04653846,14.7884615 L3.28269231,11.025 C2.93115385,10.6807692 2.45384615,10.4615385 1.92307692,10.4615385 C0.860769231,10.4615385 4.4408921e-14,11.3223077 4.4408921e-14,12.3846154 C4.4408921e-14,12.795 0.130769231,13.1738462 0.35,13.4857692 L5.73192308,21.1796154 C6.08230769,21.6738462 6.65615385,22 7.30769231,22 C7.93153846,22 8.48038462,21.6984615 8.83153846,21.2380769 L21.1453846,5.08884615 C21.3857692,4.76076923 21.5380769,4.36153846 21.5380769,3.92307692 C21.5380769,2.86076923 20.6773077,2 19.615,2 Z" id="Shape"></path>
                    </g>
                </g>
            </g>
        </g>
    </g>
</svg>