<?xml version="1.0" encoding="UTF-8" standalone="no"?>
<svg width="31px" height="42px" viewBox="0 0 31 42" version="1.1" xmlns="http://www.w3.org/2000/svg" xmlns:xlink="http://www.w3.org/1999/xlink" xmlns:sketch="http://www.bohemiancoding.com/sketch/ns">
    <!-- Generator: Sketch Beta 3.4 (14861) - http://www.bohemiancoding.com/sketch -->
    <title>makalu copy 3</title>
    <desc>Created with Sketch Beta.</desc>
    <defs></defs>
    <g id="Page-1" stroke="none" stroke-width="1" fill="none" fill-rule="evenodd" sketch:type="MSPage">
        <g id="Home" sketch:type="MSArtboardGroup" transform="translate(-21.000000, -29.000000)" fill="#fff">
            <g id="makalu-copy-+-makalu-copy-3" sketch:type="MSLayerGroup" transform="translate(21.000000, 29.000000)">
                <path d="M26.4770999,15.2706142 C27.6838238,16.2660524 28.3776608,16.827097 28.5593893,16.9529916 C29.3765838,17.5578914 30.1548643,17.9484297 30.8942308,18.1249849 C30.8685475,18.4780951 30.7969457,19.0198585 30.6802036,19.750653 C30.589534,20.4311652 30.4856335,20.9729286 30.3685023,21.3763212 C30.1093349,22.5861207 29.6941223,23.3044391 29.1236427,23.5312765 C28.8640861,22.3592832 28.5593893,21.5714013 28.2087739,21.1683868 C27.9103033,20.8152766 27.5406201,20.6390996 27.0997243,20.6390996 C26.5677695,20.7271881 26.1720139,20.7714214 25.9128465,20.7714214 C25.4330366,20.7714214 25.0045931,20.5952443 24.6282945,20.2421341 C23.6036883,22.321477 22.4880231,25.3962582 21.2816882,29.4668552 C21.1521045,29.8449176 21.028747,30.229407 20.912005,30.6199453 C20.5100231,31.9053574 19.951996,33.8334753 19.2387018,36.4046772 C18.5643218,38.7233335 18.0062947,40.5883152 17.5653987,42 L16.9046415,42 C16.6972297,41.1807389 16.223646,40.5505089 15.4842795,40.1096883 C14.8098994,39.6934417 14.031619,39.4983615 13.149438,39.5236917 C12.2672571,39.5236917 11.5022074,39.7316259 10.8535105,40.1471165 C10.114144,40.6132674 9.64056031,41.2310213 9.43314857,41.999622 L8.69378212,41.999622 C8.46029797,39.8321907 7.90265999,37.5573895 7.02047897,35.1755969 C6.0733116,32.5669667 5.00979134,30.6951802 3.829529,29.5609931 C4.38755611,29.5609931 4.96465112,29.5296139 5.56120303,29.4664775 C8.79106716,29.1515516 11.9559449,28.0109375 15.056225,26.0450132 C18.2860891,23.9910004 21.1980255,21.2247182 23.7924239,17.7465444 C23.4032836,15.4532182 22.6966049,13.3107389 21.6716096,11.3194845 C20.7244422,9.53011545 19.5764786,7.94830259 18.2277182,6.57480195 C16.995311,5.28938995 15.6850759,4.30642785 14.2970126,3.62591557 C12.9739357,2.98320956 11.767601,2.70571181 10.6780082,2.79417839 C9.52342909,2.8573148 8.44706726,3.19757093 7.44814407,3.81494674 C6.44922111,4.36918613 5.5802708,5.1317379 4.84090448,6.10222403 C3.2843435,8.11843056 2.60996349,10.5002235 2.81737528,13.2476022 C2.99910375,15.5662586 3.82252452,17.5008037 5.2884158,19.0508594 C6.72823475,20.6387212 8.3886962,21.3695157 10.2694111,21.2436211 C11.8909584,21.1048722 13.187963,20.4372141 14.1608136,19.2398906 C15.1593474,18.0300911 15.6780714,16.4864625 15.7173746,14.6086268 C15.7173746,14.4449258 15.7889764,14.2872738 15.9314017,14.1360489 C16.0481438,13.9848239 16.1975737,13.9092115 16.378913,13.9092115 C16.5863247,13.9092115 16.7287501,13.9973 16.8069673,14.1738551 C16.8976369,14.2997499 16.9563971,14.476305 16.9820804,14.7031424 C17.1373473,17.1102654 16.4956551,19.2334634 15.0558362,21.0734931 C14.4071394,21.9555125 13.6226326,22.6613549 12.7015376,23.1906422 C11.7936735,23.6821232 10.8208227,23.971719 9.78298579,24.0601856 C8.55057858,24.1482741 7.36370082,23.9467669 6.22235263,23.4552858 C5.09384589,22.9513287 4.08869673,22.2141071 3.20651571,21.2436211 C2.29865151,20.3113193 1.57874199,19.1831814 1.04678724,17.8599632 C0.489149271,16.549221 0.15176468,15.1632445 0.0350226248,13.7012773 C-0.0817194566,11.9119083 0.0933936633,10.1977735 0.560361967,8.55962929 C1.00125788,6.9717675 1.70832573,5.54760656 2.68117625,4.2875247 C3.62795452,3.02744292 4.74984581,2.03162667 6.04723928,1.30083212 C7.37031615,0.544707429 8.7778365,0.122411746 10.2694111,0.0343232945 C11.7220717,-0.0915714687 13.1813475,0.128838881 14.647239,0.695932404 C16.2041938,1.25092528 17.6895367,2.1393741 19.1032815,3.36165031 C22.2553177,6.09617519 24.7131275,10.0658299 26.4770999,15.2706142 Z" id="makalu-copy-3" sketch:type="MSShapeGroup"></path>
            </g>
        </g>
    </g>
</svg>