<?xml version="1.0" encoding="UTF-8" standalone="no"?>
<svg width="77px" height="117px" viewBox="0 0 77 117" version="1.1" xmlns="http://www.w3.org/2000/svg" xmlns:xlink="http://www.w3.org/1999/xlink" xmlns:sketch="http://www.bohemiancoding.com/sketch/ns">
    <!-- Generator: Sketch 3.0.2 (7799) - http://www.bohemiancoding.com/sketch -->
    <title>makalu</title>
    <description>Created with Sketch.</description>
    <defs></defs>
    <g id="Page-1" stroke="none" stroke-width="1" fill="none" fill-rule="evenodd" sketch:type="MSPage">
        <path d="M48.324787,7.81725703 C55.6066953,14.1761825 61.2847855,23.4073065 65.3599561,35.5106288 C68.1477582,37.825443 69.7506768,39.1301087 70.1705102,39.4228669 C72.0584122,40.8295144 73.8564142,41.737681 75.5645161,42.1482463 C75.5051821,42.9693767 75.3397659,44.2292055 75.0700656,45.9286115 C74.8605984,47.5110898 74.6205651,48.7709185 74.3499658,49.7089767 C73.7512311,52.5222717 72.7919971,54.1926654 71.4740618,54.7201581 C70.8744281,51.9947787 70.1705103,50.1626203 69.3605104,49.2254415 C68.6709766,48.404311 67.8169257,47.994625 66.7983577,47.994625 C65.5694233,48.199468 64.6551393,48.3023291 64.0564047,48.3023291 C62.9479365,48.3023291 61.9581363,47.892643 61.0888023,47.0715126 C58.7217329,51.9068632 56.1442969,59.0570284 53.3573935,68.522886 C53.0580262,69.4020406 52.7730429,70.2961409 52.5033426,71.2043076 C51.5746746,74.1934336 50.2855072,78.6771223 48.6376382,84.6562528 C47.0796695,90.0481082 45.7905021,94.3849783 44.7719338,97.6677419 L43.2454369,97.6677419 C42.7662694,95.7626137 41.6721852,94.2970629 39.9640833,93.2719686 C38.4061145,92.3040194 36.6081126,91.8503756 34.5700774,91.909279 C32.5320422,91.909279 30.7646064,92.392814 29.2659715,93.359005 C27.5578696,94.4430028 26.4637853,95.8795415 25.9846178,97.6668629 L24.276516,97.6668629 C23.7371154,92.6266695 22.448847,87.3367957 20.4108116,81.798122 C18.2226432,75.7319548 15.7656736,71.3792603 13.0390037,68.7417963 C14.3281711,68.7417963 15.6613896,68.6688264 17.0395579,68.5220076 C24.5012662,67.7896718 31.8128415,65.1372623 38.9751815,60.5656578 C46.4368899,55.7892104 53.164114,49.3564358 59.1577543,41.2682123 C58.2587533,35.9352601 56.6261675,30.9530908 54.2581991,26.3225831 C52.0700307,22.1615442 49.417978,18.4831611 46.3020401,15.2891919 C43.4549039,12.300066 40.4279677,10.0142639 37.2212313,8.43178538 C34.1646278,6.93722242 31.3777249,6.29192293 28.860522,6.49764509 C26.193186,6.64446391 23.7065495,7.43570314 21.3988136,8.87136271 C19.0910782,10.1602034 17.0836087,11.9334584 15.3755072,14.1902486 C11.7795033,18.8787805 10.2215347,24.4174551 10.7007023,30.8062713 C11.1205357,36.1981268 13.0228218,40.6967613 16.4093584,44.3012957 C19.7356621,47.9937451 23.5716993,49.6931511 27.9165712,49.4003929 C31.6627081,49.0777431 34.6590786,47.5251561 36.906581,44.740873 C39.2134175,41.9275781 40.4117858,38.3379896 40.5025849,33.9712284 C40.5025849,33.5905545 40.6680011,33.223947 40.9970355,32.8722851 C41.2667358,32.5206232 41.6119522,32.3447923 42.0308866,32.3447923 C42.5100541,32.3447923 42.8390885,32.5496353 43.0197877,32.9602006 C43.2292549,33.2529591 43.3650041,33.6635243 43.4243381,34.1910171 C43.7830395,39.7885949 42.3005869,44.7259272 38.9742834,49.0047734 C37.4756488,51.0558412 35.6632627,52.6972228 33.5353273,53.9280394 C31.4379581,55.0709405 29.1904554,55.744373 26.79282,55.9500951 C23.9456838,56.1549381 21.2037308,55.6863487 18.5669613,54.5434476 C15.9598584,53.3715345 13.6377391,51.6571829 11.5997037,49.400393 C9.50233443,47.2323975 7.83918248,44.6090002 6.61024805,41.5319589 C5.32197967,38.4839297 4.54254583,35.2609488 4.27284558,31.8612576 C4.00314527,27.7002188 4.40769573,23.7141312 5.48649692,19.9047539 C6.50506505,16.2123045 8.13854987,12.9005287 10.3860521,9.97030609 C12.5733216,7.04008366 15.1651413,4.72439022 18.1624103,3.02498419 C21.2190137,1.26667487 24.4707004,0.28465902 27.9165713,0.0798161589 C31.272542,-0.212942347 34.6437955,0.299604824 38.0303324,1.61833682 C41.6272462,2.9089297 45.0587204,4.97494851 48.324787,7.81725703 C48.324787,7.81725703 45.0587204,4.97494851 48.324787,7.81725703 L48.324787,7.81725703 M59.1615411,108.537412 C59.5053665,108.745535 59.9224378,108.953659 60.4110317,109.161782 L57.7819311,109.590501 C51.5198288,108.08297 44.8561665,107.460159 37.790944,107.719728 C35.1480561,107.798457 32.4482948,107.980078 29.6907985,108.26537 C19.6087023,109.460326 10.718361,112.032639 3.0206368,115.982307 L0.435483871,116.45 C0.693999174,116.060256 1.02489875,115.670511 1.42645914,115.280767 C1.7711462,114.916746 2.11583326,114.591699 2.46052035,114.306406 C9.46887027,107.395461 18.2583901,103.289115 28.8290806,101.990487 C31.7011854,101.678692 34.4302452,101.587491 37.0153982,101.716887 C44.5123307,101.925023 51.4491472,103.900244 57.8258788,107.64178" id="makalu" fill="#FC5C5F" sketch:type="MSShapeGroup"></path>
    </g>
</svg>